<svg xmlns:xlink="http://www.w3.org/1999/xlink" viewBox="0 0 32 32" xmlns="http://www.w3.org/2000/svg" aria-label="Duration" role="img" focusable="false" style="display: block; height: 32px; width: 32px; fill: currentcolor;" width="32"  height="32" ><path d="M16 1c8.284 0 15 6.716 15 15 0 8.284-6.716 15-15 15-8.284 0-15-6.716-15-15C1 7.716 7.716 1 16 1zm0 2C8.82 3 3 8.82 3 16s5.82 13 13 13 13-5.82 13-13S23.18 3 16 3zm0 22a1 1 0 1 1 0 2 1 1 0 0 1 0-2zm-5-1a1 1 0 1 1 0 2 1 1 0 0 1 0-2zm10 0a1 1 0 1 1 0 2 1 1 0 0 1 0-2zM17.08 5.104v10.421l9.026 5.213-1 1.732-10.027-5.79V5.105zM7.5 20a1 1 0 1 1 0 2 1 1 0 0 1 0-2zM6 15a1 1 0 1 1 0 2 1 1 0 0 1 0-2zm20 0a1 1 0 1 1 0 2 1 1 0 0 1 0-2zM7.5 10a1 1 0 1 1 0 2 1 1 0 0 1 0-2zm17 0a1 1 0 1 1 0 2 1 1 0 0 1 0-2zM11 6a1 1 0 1 1 0 2 1 1 0 0 1 0-2zm10 0a1 1 0 1 1 0 2 1 1 0 0 1 0-2z" fill="#222222"></path></svg>