<svg width="75px" height="46px" viewBox="0 0 360 212" xmlns="http://www.w3.org/2000/svg"><path d="m24.46582 212.40039a24.89438 24.89438 0 0 1 -24.86572-24.86621v-163.06836a24.894 24.894 0 0 1 24.86572-24.86572h311.06836a24.89438 24.89438 0 0 1 24.86621 24.86572v163.06836a24.8948 24.8948 0 0 1 -24.86621 24.86621zm272.01953-28.00977a3.62793 3.62793 0 0 0 0 7.25586h10.07129a3.62793 3.62793 0 0 0 0-7.25586zm-38.59961 0a3.62793 3.62793 0 1 0 0 7.25586h19.29981a3.62793 3.62793 0 1 0 0-7.25586zm-38.60058 0a3.62793 3.62793 0 0 0 0 7.25586h19.29984a3.62793 3.62793 0 1 0 0-7.25586zm-29.3711 0a3.62793 3.62793 0 0 0 0 7.25586h10.07129a3.62793 3.62793 0 1 0 0-7.25586zm-25.14258 3.22754v-156.50439h-140.79248v156.50439zm25.14258-125.19873a3.62842 3.62842 0 0 0 0 7.25684h116.64258a3.62842 3.62842 0 0 0 0-7.25684zm0-28.27685a3.62842 3.62842 0 0 0 0 7.25683h116.64258a3.62842 3.62842 0 0 0 0-7.25683z" fill="#bfe8e0"/><path d="m160.77148 188.419-10.98632-25.6709a26.72952 26.72952 0 0 0 -21.49463-16.00684l-11.73-1.34082c-.49951-.05664-1.0083-.13965-1.51123-.24609-.04932-.01075-.09912-.02442-.14942-.03809-.49707-.11621-.9126-.21875-1.31689-.3457a16.17516 16.17516 0 0 1 -7.04981-4.50781l-.00293.00195-.23681-.26074a16.04456 16.04456 0 0 1 -3.96729-10.55664v-6.668l.272-.0918a28.23383 28.23383 0 0 0 16.83545-15.46387l.1045-.24072h.2622a10.06664 10.06664 0 0 0 10.10742-10.04053 4.92378 4.92378 0 0 0 -7.53125-4.20019l-.60986.376v-.7163l1.188-8.19336a29.00144 29.00144 0 0 0 -43.69191-29.00445l-3.01075 1.81836h-.11133a10.23675 10.23675 0 0 0 -8.21923 4.15918 32.19616 32.19616 0 0 0 -4.23389 30.37451l.24609.6626-.69482-.13037a4.91572 4.91572 0 0 0 -5.86914 4.854 10.05594 10.05594 0 0 0 10.02051 10.03955l.26123.00049.10449.24024a28.2349 28.2349 0 0 0 16.83594 15.46484l.272.0918v6.668a16.04661 16.04661 0 0 1 -3.9668 10.55664l-.23095.26464-.00879-.00585a16.05471 16.05471 0 0 1 -6.97559 4.48046c-.479.1543-.89453.25684-1.3125.35157-.12939.03515-.1792.04882-.23047.05957-.501.10644-1.00976.18945-1.50976.24609l-11.7295 1.34082a26.7309 26.7309 0 0 0 -21.49462 16.00684l-10.98636 25.67092h-3.23926v-158.105h142.39209v158.105z" fill="#fff"/><g fill="#008489"><path d="m189.91406 42.19922a4.42823 4.42823 0 1 1 0-8.85645h116.64258a4.42823 4.42823 0 1 1 0 8.85645z"/><path d="m189.91406 70.47607a4.42822 4.42822 0 1 1 0-8.85644h116.64258a4.42822 4.42822 0 1 1 0 8.85644z"/><path d="m189.91406 192.44727a4.42872 4.42872 0 0 1 0-8.85743h10.07129a4.42872 4.42872 0 0 1 0 8.85743z"/><path d="m219.28516 192.44727a4.42872 4.42872 0 0 1 0-8.85743h19.29984a4.42872 4.42872 0 0 1 0 8.85743z"/><path d="m257.88574 192.44727a4.42872 4.42872 0 1 1 0-8.85743h19.29981a4.42872 4.42872 0 0 1 0 8.85743z"/><path d="m296.48535 192.44727a4.42871 4.42871 0 0 1 0-8.85743h10.07129a4.42872 4.42872 0 0 1 0 8.85743z"/></g><path d="m113.523 144.749.227-.769-.167.791z" fill="#995c4a"/><path d="m73.48694 144.38867c.02484-.00781.04828-.01849.07306-.02637-.02478.00788-.04816.01862-.07306.02637z" fill="#995c4a"/><path d="m71.97656 144.37109.21289-.05566.18164.7793c-.13134.03515-.18115.04882-.23242.05957z" fill="#995c4a"/><path d="m79.999 139.81641.29541-.33789a15.24989 15.24989 0 0 0 3.76959-10.03125v-6.09473a29.03832 29.03832 0 0 1 -16.9375-15.57422 10.85767 10.85767 0 0 1 -10.55668-10.83594 5.75023 5.75023 0 0 1 10.18018-3.65576 42.82717 42.82717 0 0 0 8.9126-25.43115l.07812-5.25293.76856-.14893a47.46926 47.46926 0 0 0 39.29736 28.93018l6.27686.60156a5.7226 5.7226 0 0 1 8.624 4.957 10.853 10.853 0 0 1 -10.6455 10.8389 29.035 29.035 0 0 1 -16.936 15.57129v6.09473a15.24784 15.24784 0 0 0 3.77 10.03125l.29541.33789-13.5962 9.36132z" fill="#995c4a"/><path d="m114.8999 145.11621.10059-.80078.21289.05566-.16211.78321c-.05127-.01075-.10107-.02442-.15137-.03809z" fill="#995c4a"/><path d="m66.4126 94.168a4.9773 4.9773 0 0 0 -3.17432-2.07959l-.22217-.042-.07861-.21192a32.99264 32.99264 0 0 1 4.33936-31.12649 11.04113 11.04113 0 0 1 8.75146-4.48487l2.82031-1.70361a29.80181 29.80181 0 0 1 44.89795 29.8042l-1.23926 8.50586-6.77685-.6499a48.26428 48.26428 0 0 1 -39.21729-27.7378l-.05078 3.4253a43.6244 43.6244 0 0 1 -9.40527 26.3247l-.33838.42676z" fill="#2e2725"/><path d="m25.54834 188.419 11.12109-25.98536a27.53225 27.53225 0 0 1 22.13916-16.4873l11.73-1.34082c.4751-.05371.958-.13281 1.436-.23438l.21435-.05566c.39942-.09082.794-.1875 1.17774-.30859a15.35569 15.35569 0 0 0 6.92187-4.53223l.23047-.26367.29151.19336 12.78468 8.80265 13.06641-8.997.24024.26465a15.26487 15.26487 0 0 0 6.8496 4.50684c.45557.14648.84961.24316 1.24708.334l.21484.05566c.48.10157.96289.18067 1.4375.23438l11.73047 1.34082a27.53084 27.53084 0 0 1 22.13916 16.4873l11.12109 25.98535z" fill="#ff8e8e"/></svg>
