<svg xmlns:xlink="http://www.w3.org/1999/xlink" viewBox="0 0 32 32" xmlns="http://www.w3.org/2000/svg" aria-hidden="true" role="presentation" focusable="false" style="display: block; height: 32px; width: 32px; fill: currentcolor;" width="32"  height="32" ><path d="M27 1a2 2 0 0 1 1.995 1.85L29 3v27c0 .852-.986 1.297-1.623.783l-.084-.076L24 27.415l-3.293 3.292a1 1 0 0 1-1.218.153l-.102-.07-.094-.083L16 27.415l-3.293 3.292a1 1 0 0 1-1.218.153l-.102-.07-.094-.083L8 27.415l-3.293 3.292c-.575.575-1.523.253-1.684-.485l-.017-.108L3 30V3a2 2 0 0 1 1.85-1.995L5 1zm0 2H5v24.584l2.293-2.291a1 1 0 0 1 1.218-.153l.102.07.094.083L12 28.585l3.293-3.292a1 1 0 0 1 1.218-.153l.102.07.094.083L20 28.585l3.293-3.292a1 1 0 0 1 1.218-.153l.102.07.094.083L27 27.585zm-5 12v2H10v-2zm0-4v2H10v-2z" fill="#222222"></path></svg>